# xmcd
#
# Track frame offsets:
#	150
#	24067
#	38500
#	51627
#	65010
#	78922
#	94047
#	109257
#	123875
#	140990
#
# Disc length: 2088 seconds
#
# Revision: 2
# Processed by: cddbd v1.5.1PL0 Copyright (c) Steve Scherf et al.
# Submitted via: audiograbber 1.83.01
#
DISCID=8308260a
DTITLE=Various Artist - Country Pride
DYEAR=1900
DGENRE=
TTITLE0=Charlie Daniels - America, I Believe In You
TTITLE1=Lee Greenwood - God Bless The U.S.A.
TTITLE2=Merle Haggard - The Fightin' Side Of Me
TTITLE3=Ray Stevens - Working For The Japanese
TTITLE4=Palamino Road - No Time To Stop Believing
TTITLE5=Glen Campbell - God Must Have Blessed America
TTITLE6=Tanya Tucker - Bidding America Goodbye
TTITLE7=Eddie Rabbitt - American Boy
TTITLE8=Eddy Raven - Somebody's Tearing The Flag
TTITLE9=Jud Strunk - My Country
EXTD=
EXTT0=
EXTT1=
EXTT2=
EXTT3=
EXTT4=
EXTT5=
EXTT6=
EXTT7=
EXTT8=
EXTT9=
PLAYORDER=
